<svg width="15" height="16" viewBox="0 0 15 16" fill="none" xmlns="http://www.w3.org/2000/svg">
<path d="M3.93149 4.36719H1.73556C1.73556 4.36719 5.92604e-05 4.43818 5.92604e-05 6.02065V8.19965C5.92604e-05 8.19965 -0.0359212 10.0253 1.66528 10.0253C1.66528 10.0253 2.26739 10.3781 2.26739 11.0467V14.9841C2.26739 14.9841 2.16114 15.6161 2.83353 15.6161C2.83353 15.6161 4.79727 15.9043 3.82411 14.0119C4.56003 13.2972 3.90732 12.5651 3.90732 12.5651C3.90732 12.5651 4.56959 11.9685 3.93149 11.1521C3.93149 11.1521 4.49875 10.4136 4.49875 9.99138L4.53361 4.96479C4.53361 4.96479 4.64042 4.36719 3.93149 4.36719ZM1.37519 8.31091C1.37519 8.57315 1.15031 8.78612 0.870338 8.78612C0.591489 8.78612 0.366611 8.57315 0.366611 8.31091V6.01641C0.366611 5.75416 0.591489 5.54172 0.870338 5.54172C1.15031 5.54172 1.37519 5.75416 1.37519 6.01641V8.31091Z" fill="#E7E7E7"/>
<path d="M13.991 5.39816V0.804929C13.991 0.203623 13.4508 0.870622 13.4508 0.870622C10.8962 4.60984 5.62444 4.30999 5.62444 4.30999C5.00153 4.30999 5.10048 4.8101 5.10048 4.8101V9.14851C5.10048 9.64863 5.65593 9.64863 5.65593 9.64863C11.5505 9.64863 13.5587 13.159 13.5587 13.159C13.5587 13.159 14.0231 13.7036 13.991 13.1362V8.55144C14.5875 8.24841 14.9996 7.65982 14.9996 6.97427C14.9996 6.28926 14.587 5.7012 13.991 5.39816Z" fill="#E7E7E7"/>
</svg>
