<svg width="15" height="16" viewBox="0 0 15 16" fill="none" xmlns="http://www.w3.org/2000/svg">
<path id="Vector" d="M2.14277 7.57055C2.14277 10.2981 4.53999 12.5072 7.49969 12.5072C8.46729 12.5072 9.37462 12.2697 10.1581 11.8562L7.74745 9.19041C7.36912 8.77079 7.42938 8.14753 7.88472 7.79887C8.34006 7.45022 9.01637 7.50576 9.39471 7.92538L11.7685 10.5511C12.4515 9.72419 12.8566 8.69057 12.8566 7.57055C12.8566 4.84303 10.4594 2.63386 7.49969 2.63386C4.53999 2.63386 2.14277 4.84303 2.14277 7.57055ZM11.5475 13.3897C10.379 14.0808 8.98959 14.4819 7.49969 14.4819C3.35812 14.4819 0 11.3872 0 7.57055C0 3.75387 3.35812 0.65918 7.49969 0.65918C11.6413 0.65918 14.9994 3.75387 14.9994 7.57055C14.9994 9.30148 14.3097 10.8843 13.168 12.0969L14.7516 13.8494C15.13 14.269 15.0697 14.8923 14.6144 15.2409C14.159 15.5896 13.4827 15.5341 13.1044 15.1144L11.5442 13.3897H11.5475Z" fill="white"/>
</svg>
