<svg width="15" height="15" viewBox="0 0 15 15" fill="none" xmlns="http://www.w3.org/2000/svg">
<path id="Vector" d="M12.5 13.4192C12.8438 13.4192 13.125 13.2109 13.125 12.9564V4.6254H10C9.30859 4.6254 8.75 4.21174 8.75 3.69973V1.38557H2.5C2.15625 1.38557 1.875 1.59384 1.875 1.8484V12.9564C1.875 13.2109 2.15625 13.4192 2.5 13.4192H12.5ZM0 1.8484C0 0.827277 1.12109 -0.00292969 2.5 -0.00292969H8.96484C9.62891 -0.00292969 10.2656 0.190882 10.7344 0.538006L14.2695 3.1559C14.7383 3.50303 15 3.97454 15 4.4663V12.9564C15 13.9775 13.8789 14.8077 12.5 14.8077H2.5C1.12109 14.8077 0 13.9775 0 12.9564V1.8484Z" fill="white"/>
</svg>
