<svg width="15" height="16" viewBox="0 0 15 16" fill="none" xmlns="http://www.w3.org/2000/svg">
<path id="Vector" d="M8.12509 1.30851V1.61224C8.29176 1.64695 8.45322 1.69034 8.59905 1.73373C8.93239 1.83209 9.13031 2.21392 9.04177 2.58419C8.95322 2.95446 8.60947 3.1743 8.27613 3.07595C7.99227 2.99206 7.72665 2.93421 7.48967 2.93131C7.29956 2.92842 7.10685 2.98049 6.98445 3.05859C6.92976 3.0962 6.90372 3.12802 6.8933 3.14537C6.88549 3.15984 6.87507 3.18009 6.87507 3.22637C6.87507 3.23505 6.87507 3.24083 6.87507 3.24373C6.88028 3.24951 6.89851 3.27844 6.96101 3.31894C7.11206 3.42018 7.33602 3.49828 7.67456 3.6111L7.698 3.61978C7.98707 3.71524 8.37249 3.84541 8.68499 4.06236C9.04177 4.31113 9.36469 4.72479 9.3725 5.36119C9.38031 6.01205 9.07562 6.48645 8.67718 6.76415C8.5027 6.88275 8.3152 6.96664 8.12248 7.01871V7.32533C8.12248 7.71006 7.84384 8.01958 7.49748 8.01958C7.15112 8.01958 6.87247 7.71006 6.87247 7.32533V6.99557C6.62507 6.92903 6.39851 6.84225 6.2058 6.76993C6.15111 6.74969 6.09902 6.72944 6.04955 6.71208C5.72142 6.59059 5.54433 6.19718 5.65371 5.8327C5.76308 5.46822 6.11725 5.27151 6.44538 5.39301C6.51309 5.41904 6.57559 5.44218 6.63549 5.46532C6.98966 5.59839 7.24487 5.69385 7.51831 5.70542C7.72665 5.7141 7.91154 5.65914 8.01832 5.58682C8.0678 5.5521 8.09123 5.52318 8.10165 5.50293C8.11207 5.48557 8.12509 5.45086 8.12248 5.38433V5.37854C8.12248 5.34962 8.12248 5.3178 8.01832 5.24548C7.86988 5.14134 7.64592 5.06035 7.31258 4.94753L7.2631 4.93017C6.98185 4.83761 6.61205 4.71322 6.31517 4.51362C5.96361 4.27932 5.62506 3.87723 5.62246 3.23794C5.61985 2.57551 5.9584 2.12136 6.34382 1.8668C6.51049 1.75688 6.69018 1.68167 6.86987 1.6296L6.87507 1.30851C6.87507 0.923777 7.15372 0.614258 7.50008 0.614258C7.84644 0.614258 8.12509 0.923777 8.12509 1.30851ZM14.797 10.3424C15.1382 10.8573 15.0392 11.5805 14.5757 11.9594L11.2788 14.6583C10.6694 15.1559 9.935 15.4249 9.17718 15.4249H5.00005H0.833342C0.3724 15.4249 0 15.0113 0 14.4992V12.6479C0 12.1359 0.3724 11.7222 0.833342 11.7222H1.79169L2.96097 10.6809C3.55212 10.1544 4.28651 9.87091 5.04433 9.87091H7.08341H7.50008H9.16677C9.62771 9.87091 10.0001 10.2846 10.0001 10.7966C10.0001 11.3086 9.62771 11.7222 9.16677 11.7222H7.50008H7.08341C6.85424 11.7222 6.66674 11.9305 6.66674 12.1851C6.66674 12.4396 6.85424 12.6479 7.08341 12.6479H10.2241L13.3413 10.0965C13.8048 9.7176 14.4559 9.82752 14.797 10.3424ZM5.04172 11.7222H5.01828C5.0261 11.7222 5.03391 11.7222 5.04172 11.7222Z" fill="white"/>
</svg>
