<svg width="17" height="17" viewBox="0 0 17 17" fill="none" xmlns="http://www.w3.org/2000/svg">
<path d="M1 16.0732C1 12.8348 3.9374 10.2095 7.56085 10.2095C7.87905 10.2095 8.192 10.2298 8.49811 10.2689M11.3099 4.34581C11.3099 6.19635 9.63136 7.6965 7.56085 7.6965C5.4903 7.6965 3.81179 6.19635 3.81179 4.34581C3.81179 2.49527 5.4903 0.995117 7.56085 0.995117C9.63136 0.995117 11.3099 2.49527 11.3099 4.34581ZM9.05091 16.0732L10.9489 15.734C11.1144 15.7044 11.1972 15.6896 11.2743 15.6625C11.3428 15.6386 11.4079 15.6074 11.4682 15.5698C11.5362 15.5274 11.5959 15.4741 11.7152 15.3674L15.6118 11.8849C16.1294 11.4222 16.1294 10.6722 15.6118 10.2095C15.0942 9.74688 14.2549 9.74688 13.7372 10.2095L9.84065 13.6921C9.72134 13.7988 9.66163 13.8521 9.61421 13.9129C9.57213 13.9667 9.53735 14.025 9.51045 14.0862C9.48018 14.1551 9.46368 14.2291 9.4305 14.377L9.05091 16.0732Z" stroke="#E7E7E7" stroke-linecap="round" stroke-linejoin="round"/>
</svg>
