<svg width="15" height="16" viewBox="0 0 15 16" fill="none" xmlns="http://www.w3.org/2000/svg">
<path d="M9.29472 4.24316H2.47852V4.87077H9.29472V4.24316Z" fill="#E7E7E7"/>
<path d="M9.29472 6.12793H2.47852V6.75553H9.29472V6.12793Z" fill="#E7E7E7"/>
<path d="M7.74559 8.0127H2.47852V8.6403H7.74559V8.0127Z" fill="#E7E7E7"/>
<path d="M6.19645 9.89746H2.47852V10.5251H6.19645V9.89746Z" fill="#E7E7E7"/>
<path d="M6.19645 11.7822H2.47852V12.4098H6.19645V11.7822Z" fill="#E7E7E7"/>
<path d="M11.7735 5.68343V2.54215L9.4231 0.15918H0V15.2373H11.7735V9.71306L15 6.44173L13.0128 4.42692L11.7735 5.68343ZM11.4636 6.88591L12.5747 8.01237L8.85674 11.7819H7.74569V10.6554L11.4636 6.88591ZM9.60466 1.23161L10.7157 2.35807H9.60466V1.23161ZM11.1538 14.609H0.619655V0.787435H8.985V2.98633H11.1538V6.31168L7.12604 10.3953V12.4102H9.11327L11.1538 10.3413V14.609ZM13.0128 7.56819L11.9017 6.44173L13.0128 5.31527L14.1238 6.44173L13.0128 7.56819Z" fill="#E7E7E7"/>
</svg>
