<svg width="15" height="14" viewBox="0 0 15 14" fill="none" xmlns="http://www.w3.org/2000/svg">
<path d="M14.9996 6.29095L15 11.2186C15 12.5832 14.1428 13.699 13.0611 13.7798L12.9353 13.7845H2.06525C0.967178 13.7845 0.0693111 12.7192 0.00430867 11.3749L0.000540419 11.2186L0 6.29095H14.9996ZM12.195 9.56163H10.318L10.2416 9.56802C9.96673 9.61436 9.75489 9.90715 9.75489 10.2614C9.75489 10.6157 9.96673 10.9085 10.2416 10.9548L10.318 10.9612H12.195L12.2714 10.9548C12.5463 10.9085 12.7581 10.6157 12.7581 10.2614C12.7581 9.90715 12.5463 9.61436 12.2714 9.56802L12.195 9.56163ZM12.9353 0.716797C14.0334 0.716797 14.9312 1.78209 14.9962 3.12643L15 3.28274L14.9996 4.89135H0L0.000540419 3.28274C0.000540419 1.91809 0.857738 0.802262 1.93948 0.72148L2.06525 0.716797H12.9353Z" fill="#E7E7E7"/>
</svg>
