<svg width="15" height="16" viewBox="0 0 15 16" fill="none" xmlns="http://www.w3.org/2000/svg">
<path d="M14.9843 9.2854H14.9845V5.15961C14.9845 4.71551 14.6033 4.35547 14.1329 4.35547H12.6141C12.1438 4.35547 11.7625 4.71551 11.7625 5.15961V7.17003L12.1678 6.84219L13.1221 5.56818L12.4112 7.33568L10.8434 8.60359C10.5883 8.80995 10.5586 9.17255 10.7772 9.41347C10.9958 9.65446 11.3798 9.68232 11.6349 9.47605L13.3205 8.11282C13.3979 8.05027 13.4573 7.97037 13.4935 7.88049L14.2595 5.97603L14.0125 8.06662C13.9859 8.29244 13.8377 8.38485 13.6817 8.51098C13.4913 8.66495 12.1622 9.73987 11.9961 9.87421C11.9193 9.9363 11.8364 9.98726 11.7496 10.0273L11.7493 14.381C11.7492 14.7616 12.076 15.0702 12.4792 15.0703H12.4792C12.8824 15.0703 13.2092 14.7617 13.2092 14.3811L13.2096 9.28543H13.5245C13.5245 9.28609 13.5244 9.28674 13.5244 9.2874L13.5396 14.383C13.5407 14.763 13.8673 15.0703 14.2695 15.0703C14.2702 15.0703 14.2709 15.0703 14.2717 15.0703C14.6748 15.0692 15.0007 14.7597 14.9995 14.3791L14.9843 9.2854Z" fill="#E7E7E7"/>
<path d="M13.3682 3.86126C14.0644 3.86126 14.6289 3.32831 14.6289 2.67087C14.6289 2.01343 14.0644 1.48047 13.3682 1.48047C12.6719 1.48047 12.1074 2.01343 12.1074 2.67087C12.1074 3.32831 12.6719 3.86126 13.3682 3.86126Z" fill="#E7E7E7"/>
<path d="M1.6328 3.86126C2.32909 3.86126 2.89354 3.32831 2.89354 2.67087C2.89354 2.01343 2.32909 1.48047 1.6328 1.48047C0.93652 1.48047 0.37207 2.01343 0.37207 2.67087C0.37207 3.32831 0.93652 3.86126 1.6328 3.86126Z" fill="#E7E7E7"/>
<path d="M4.15611 8.60355L2.58837 7.33565L1.87746 5.56815L2.83168 6.84219L3.23703 7.17003V5.15961C3.23703 4.71551 2.85572 4.35547 2.38538 4.35547H0.866603C0.396256 4.35547 0.0149468 4.71551 0.0149468 5.15961V9.2854H0.0152596L3.01777e-06 14.3791C-0.00114383 14.7597 0.324735 15.0692 0.727869 15.0702C0.728599 15.0702 0.729259 15.0702 0.729989 15.0702C1.13215 15.0702 1.45879 14.763 1.45991 14.383L1.47516 9.28737C1.47516 9.28671 1.47506 9.28605 1.47506 9.2854H1.78992L1.79034 14.3811C1.79037 14.7617 2.11719 15.0703 2.52036 15.0702C2.92349 15.0702 3.25028 14.7616 3.25024 14.3809L3.24989 10.0273C3.16311 9.98723 3.08023 9.9363 3.00349 9.87418C2.83737 9.73984 1.50825 8.66492 1.31787 8.51095C1.16857 8.3902 1.01465 8.29618 0.987022 8.06658L0.740102 5.97603L1.50606 7.88046C1.5422 7.97034 1.6017 8.05024 1.67902 8.11278L3.36465 9.47602C3.62005 9.68248 4.00393 9.6542 4.22239 9.41344C4.44091 9.17252 4.41127 8.80992 4.15611 8.60355Z" fill="#E7E7E7"/>
<path d="M8.17802 1.37032C8.17802 0.609191 7.28514 -0.0078125 6.18375 -0.0078125C5.08233 -0.0078125 4.18945 0.609191 4.18945 1.37032C4.18945 1.68435 4.34174 1.97367 4.59763 2.2054L4.29027 2.81036C4.27595 2.83852 4.28242 2.87218 4.30629 2.89381C4.33017 2.91543 4.36607 2.92016 4.39526 2.90549L5.12646 2.53866C5.43302 2.67143 5.79528 2.74844 6.18372 2.74844C7.28514 2.74844 8.17802 2.13144 8.17802 1.37032Z" fill="#E7E7E7"/>
<path d="M10.5628 3.97027L10.8701 3.36531C10.8845 3.33715 10.878 3.30349 10.8541 3.28186C10.8302 3.26024 10.7944 3.25551 10.7651 3.27018L10.0339 3.63701C9.72739 3.50424 9.36516 3.42723 8.97669 3.42723C7.8753 3.42723 6.98242 4.04423 6.98242 4.80536C6.98242 5.56648 7.8753 6.18348 8.97669 6.18348C10.0781 6.18348 10.971 5.56648 10.971 4.80536C10.971 4.49136 10.8187 4.20203 10.5628 3.97027Z" fill="#E7E7E7"/>
</svg>
